<?xml version="1.0" encoding="UTF-8"?>
<svg xmlns="http://www.w3.org/2000/svg" version="1.1" viewBox="0 0 133 34">
  <!-- Generator: Adobe Illustrator 29.1.0, SVG Export Plug-In . SVG Version: 2.1.0 Build 142)  -->
  <defs>
    <style>
      .st0 {
        fill: #00d192;
      }

      .st1 {
        fill: #7464e1;
      }

      .st2 {
        font-family: Heebo-Black, Heebo;
        font-size: 22.2px;
        font-weight: 800;
      }

      .st2, .st3 {
        fill: #18113c;
      }

      .st4 {
        fill: #c1272d;
      }

      .st3 {
        font-family: Heebo-Bold, Heebo;
        font-size: 12.7px;
        font-weight: 700;
      }

      .st5 {
        fill: #6b6b6b;
      }
    </style>
  </defs>
  <g id="Layer_1">
    <g>
      <polygon className="st4" points="28.4 1.2 28.5 1.2 28.5 1.2 28.4 1.2"/>
      <rect className="st1" x="2" y="11" width="12.6" height="4.6" rx="1.1" ry="1.1"/>
      <rect className="st0" x="2" y="25.7" width="12.6" height="4.6" rx="1.1" ry="1.1"/>
      <rect className="st1" x="5.4" y="18.4" width="9.2" height="4.6" rx="1.1" ry="1.1"/>
      <path className="st1" d="M18,11h1.6c.3,0,.5.2.6.4l1.4,2.7c.3.6,0,1.4-.6,1.4h-3c-.5,0-.9-.5-.9-1.1v-2.4c0-.6.4-1.1.9-1.1Z"/>
      <path className="st0" d="M18,25.7h8.9c.3,0,.5.2.6.4l1.4,2.7c.3.6,0,1.4-.6,1.4h-10.3c-.5,0-.9-.5-.9-1.1v-2.4c0-.6.4-1.1.9-1.1Z"/>
      <path className="st1" d="M18,18.4h5.3c.3,0,.5.2.6.4l1.4,2.7c.3.6,0,1.4-.6,1.4h-6.6c-.5,0-.9-.5-.9-1.1v-2.4c0-.6.4-1.1.9-1.1Z"/>
      <path className="st5" d="M13.1.7h5.6c.3,0,.5.2.5.5v6.5s0,0,0,.1c0,0,0,0-.1.1-.4.1-1.1.4-1.7,1.1-.9,1-1,2-1,2.4v21.6c0,0,0,.2-.2.2h-.4c0,0-.2,0-.2-.2V11.4c0-.4-.2-1.4-1-2.4-.6-.7-1.3-1-1.7-1.1,0,0,0,0-.1-.1,0,0,0-.1,0-.1V1.2c0-.3.2-.5.5-.5Z"/>
    </g>
  </g>
  <g id="Layer_2">
    <text className="st2" transform="translate(39.3 18.4)"><tspan x="0" y="0">Editors</tspan></text>
    <text className="st3" transform="translate(40.4 30)"><tspan x="0" y="0">Academy</tspan></text>
  </g>
</svg>