<?xml version="1.0" encoding="UTF-8"?>
<svg id="Layer_1" xmlns="http://www.w3.org/2000/svg" version="1.1" viewBox="0 0 115 25">
  <!-- Generator: Adobe Illustrator 29.1.0, SVG Export Plug-In . SVG Version: 2.1.0 Build 142)  -->
  <defs>
    <style>
      .st0 {
        fill: #00d192;
      }

      .st1 {
        font-family: Heebo-Bold, Heebo;
        font-size: 8.9px;
        font-weight: 700;
      }

      .st1, .st2 {
        fill: #18113c;
      }

      .st3 {
        fill: #7464e1;
      }

      .st4 {
        fill: #c1272d;
      }

      .st2 {
        font-family: Heebo-Black, Heebo;
        font-size: 19.5px;
        font-weight: 800;
        letter-spacing: 0em;
      }

      .st5 {
        fill: #6b6b6b;
      }
    </style>
  </defs>
  <g>
    <polygon class="st4" points="20.7 1.2 20.8 1.3 20.8 1.2 20.7 1.2"/>
    <rect class="st3" x="1.8" y="8.3" width="9.1" height="3.3" rx="1.1" ry="1.1"/>
    <rect class="st0" x="1.8" y="18.8" width="9.1" height="3.3" rx=".8" ry=".8"/>
    <rect class="st3" x="4.2" y="13.6" width="6.6" height="3.3" rx=".8" ry=".8"/>
    <path class="st3" d="M13.3,8.3h1.1c.2,0,.4.1.5.3l1,2c.2.4,0,1-.5,1h-2.1c-.4,0-.6-.4-.6-.8v-1.7c0-.4.3-.8.6-.8Z"/>
    <path class="st0" d="M13.3,18.8h6.4c.2,0,.4.1.5.3l1,2c.2.4,0,1-.5,1h-7.4c-.4,0-.6-.4-.6-.8v-1.7c0-.4.3-.8.6-.8Z"/>
    <path class="st3" d="M13.3,13.6h3.8c.2,0,.4.1.5.3l1,2c.2.4,0,1-.5,1h-4.7c-.4,0-.6-.4-.6-.8v-1.7c0-.4.3-.8.6-.8Z"/>
    <path class="st5" d="M9.7.9h4c.2,0,.4.2.4.4v4.6s0,0,0,0c0,0,0,0,0,0-.3,0-.8.3-1.2.8-.6.7-.7,1.5-.7,1.7v15.5c0,0,0,.1-.1.1h-.3c0,0-.1,0-.1-.1v-15.5c0-.3-.1-1-.7-1.7-.4-.5-.9-.7-1.2-.8,0,0,0,0,0,0,0,0,0,0,0,0V1.2c0-.2.2-.4.4-.4Z"/>
  </g>
  <text class="st2" transform="translate(29.8 15.2)"><tspan x="0" y="0">Editors</tspan></text>
  <text class="st1" transform="translate(59 22.1)"><tspan x="0" y="0">Academy</tspan></text>
</svg>