<?xml version="1.0" encoding="UTF-8"?>
<svg id="Layer_1" xmlns="http://www.w3.org/2000/svg" version="1.1" viewBox="0 0 53 56">
  <!-- Generator: Adobe Illustrator 29.1.0, SVG Export Plug-In . SVG Version: 2.1.0 Build 142)  -->
  <defs>
    <style>
      .st0 {
        fill: #00d192;
      }

      .st1 {
        fill: #7464e1;
      }

      .st2 {
        fill: #c1272d;
      }

      .st3 {
        fill: #6b6b6b;
      }
    </style>
  </defs>
  <polygon class="st2" points="48.3 1.4 48.4 1.5 48.4 1.4 48.3 1.4"/>
  <rect class="st1" x="3.7" y="18" width="21.3" height="7.7" rx="1.9" ry="1.9"/>
  <rect class="st0" x="3.7" y="42.8" width="21.3" height="7.7" rx="1.9" ry="1.9"/>
  <rect class="st1" x="9.4" y="30.4" width="15.6" height="7.7" rx="1.9" ry="1.9"/>
  <path class="st1" d="M30.7,18h2.7c.4,0,.8.3,1.1.7l2.3,4.6c.5,1,0,2.3-1.1,2.3h-5c-.8,0-1.5-.8-1.5-1.9v-4c0-1,.7-1.9,1.5-1.9Z"/>
  <path class="st0" d="M30.7,42.8h15.1c.4,0,.8.3,1.1.7l2.3,4.6c.5,1,0,2.3-1.1,2.3h-17.4c-.8,0-1.5-.8-1.5-1.9v-4c0-1,.7-1.9,1.5-1.9Z"/>
  <path class="st1" d="M30.7,30.4h8.9c.4,0,.8.3,1.1.7l2.3,4.6c.5,1,0,2.3-1.1,2.3h-11.2c-.8,0-1.5-.8-1.5-1.9v-4c0-1,.7-1.9,1.5-1.9Z"/>
  <path class="st3" d="M22.4.6h9.4c.5,0,.9.4.9.8v10.9c0,0,0,.1-.1.2,0,0-.2.2-.2.2-.6.2-1.8.7-2.9,1.9-1.5,1.6-1.7,3.4-1.8,4.1v36.4c0,.2-.1.3-.3.3h-.7c-.2,0-.3-.1-.3-.3V18.7c0-.6-.3-2.4-1.8-4.1-1-1.1-2.2-1.6-2.9-1.9,0,0-.1,0-.2-.2,0,0,0-.2-.1-.2V1.4c0-.5.4-.8.9-.8Z"/>
</svg>