<?xml version="1.0" encoding="UTF-8"?>
<svg id="Layer_1" xmlns="http://www.w3.org/2000/svg" version="1.1" viewBox="0 0 72 20">
  <!-- Generator: Adobe Illustrator 29.1.0, SVG Export Plug-In . SVG Version: 2.1.0 Build 142)  -->
  <defs>
    <style>
      .st0 {
        font-family: Heebo-Bold, Heebo;
        font-size: 8.6px;
        font-weight: 700;
      }

      .st0, .st1, .st2 {
        fill: #fff;
      }

      .st2 {
        font-family: Heebo-Black, Heebo;
        font-size: 12.9px;
        font-weight: 800;
      }
    </style>
  </defs>
  <g>
    <polygon class="st1" points="17.3 .9 17.3 .9 17.3 .9 17.3 .9"/>
    <rect class="st1" x="1.9" y="6.6" width="7.3" height="2.6" rx="1" ry="1"/>
    <rect class="st1" x="1.9" y="15.1" width="7.3" height="2.6" rx=".6" ry=".6"/>
    <rect class="st1" x="3.9" y="10.8" width="5.4" height="2.6" rx=".6" ry=".6"/>
    <path class="st1" d="M11.2,6.6h.9c.2,0,.3,0,.4.3l.8,1.6c.2.4,0,.8-.4.8h-1.7c-.3,0-.5-.3-.5-.6v-1.4c0-.4.2-.6.5-.6Z"/>
    <path class="st1" d="M11.2,15.1h5.2c.2,0,.3,0,.4.3l.8,1.6c.2.4,0,.8-.4.8h-6c-.3,0-.5-.3-.5-.6v-1.4c0-.4.2-.6.5-.6Z"/>
    <path class="st1" d="M11.2,10.8h3.1c.2,0,.3,0,.4.3l.8,1.6c.2.4,0,.8-.4.8h-3.8c-.3,0-.5-.3-.5-.6v-1.4c0-.4.2-.6.5-.6Z"/>
    <path class="st1" d="M8.4.6h3.2c.2,0,.3.1.3.3v3.8s0,0,0,0c0,0,0,0,0,0-.2,0-.6.3-1,.6-.5.6-.6,1.2-.6,1.4v12.5c0,0,0,0-.1,0h-.3c0,0-.1,0-.1,0V6.8c0-.2,0-.8-.6-1.4-.4-.4-.8-.6-1-.6,0,0,0,0,0,0,0,0,0,0,0,0V.9c0-.2.1-.3.3-.3Z"/>
  </g>
  <text class="st2" transform="translate(23.6 10.2)"><tspan x="0" y="0">Editors</tspan></text>
  <text class="st0" transform="translate(24.3 17.7)"><tspan x="0" y="0">Academy</tspan></text>
</svg>